# xmcd
#
# Track frame offsets:
#	150
#	10786
#	22387
#	32572
#	43258
#	54468
#	68798
#	79089
#	90383
#	103045
#	116824
#	127883
#
# Disc length: 1842 seconds
#
# Revision: 1
# Processed by: cddbd v1.5.1PL0 Copyright (c) Steve Scherf et al.
# Submitted via: dBpowerAMP V4.0
#
DISCID=9907300c
DTITLE=Patsy Cline - That Wonderful Someone
DYEAR=2000
DGENRE=Country
TTITLE0=Gotta Lot Of Rhythm In My Soul
TTITLE1=I've Loved And Lost Again
TTITLE2=Three Cigarettes In An Ashtray
TTITLE3=I Can See An Angel Walkin'
TTITLE4=Hungry For Love
TTITLE5=Then You'll Know
TTITLE6=Walkin' Dreams
TTITLE7=That Wonderful Someone
TTITLE8=Just A Closer Walk With Thee
TTITLE9=A Church, A Courtroom, And Then Goodbye
TTITLE10=Stop The World
TTITLE11=I Love You Honey
EXTD=
EXTT0=
EXTT1=
EXTT2=
EXTT3=
EXTT4=
EXTT5=
EXTT6=
EXTT7=
EXTT8=
EXTT9=
EXTT10=
EXTT11=
PLAYORDER=
